<svg width="394" height="103" viewBox="0 0 394 103" fill="none" xmlns="http://www.w3.org/2000/svg">
<circle cx="51.25" cy="51.25" r="49.3683" stroke="white" stroke-width="3.76333"/>
<path d="M73.6398 84.0727L85.1659 75.4071C86.2474 74.594 87.524 74.0801 88.8673 73.9172L95.0774 73.1637" stroke="white" stroke-width="3.53448" stroke-linecap="round"/>
<path d="M54.4824 87.3826C66.2298 84.2342 68.6615 83.1425 71.3808 83.2819C72.7077 83.3499 74.1039 83.9597 74.4731 85.2359C74.6659 85.9024 74.6601 86.691 74.2534 87.5443C72.6074 90.9974 58.583 93.5789 58.4108 93.7059" stroke="white" stroke-width="3.53448" stroke-linecap="round"/>
<path d="M8.83618 73.5172C12.6898 73.5174 17.7105 75.8516 24.1635 80.2544C25.4872 81.1576 26.9643 81.8183 28.5295 82.1622C35.2824 83.6457 39.8502 84.8067 45.9638 86.8139C46.6906 87.0526 47.3881 87.3986 47.9529 87.9146C51.5055 91.1601 48.4332 93.0175 43.8812 92.9553C43.2481 92.9467 42.6207 92.8429 42.0044 92.6982L33.7801 90.7672" stroke="white" stroke-width="3.53448" stroke-linecap="round"/>
<g clip-path="url(#clip0_4898_305)">
<path d="M51.6599 12.2999C42.7433 12.2999 34.192 15.842 27.887 22.147C21.582 28.452 18.0399 37.0034 18.0399 45.9199C18.0399 54.8365 21.582 63.3879 27.887 69.6929C34.192 75.9978 42.7433 79.5399 51.6599 79.5399C60.5765 79.5399 69.1279 75.9978 75.4329 69.6929C81.7378 63.3879 85.2799 54.8365 85.2799 45.9199C85.2799 37.0034 81.7378 28.452 75.4329 22.147C69.1279 15.842 60.5765 12.2999 51.6599 12.2999ZM51.6599 75.3374C47.6585 75.3387 43.6988 74.5236 40.0232 72.942L55.3329 55.7202C55.6742 55.3355 55.8626 54.8391 55.8624 54.3249V48.0212C55.8624 47.4639 55.641 46.9294 55.247 46.5354C54.8529 46.1413 54.3185 45.9199 53.7612 45.9199C46.3438 45.9199 38.5145 38.2083 38.4389 38.1285C38.2434 37.9335 38.0113 37.7789 37.7561 37.6737C37.5008 37.5684 37.2273 37.5144 36.9512 37.5149H28.5462C27.9889 37.5149 27.4544 37.7363 27.0604 38.1304C26.6663 38.5244 26.4449 39.0589 26.4449 39.6162V52.2237C26.4449 52.6136 26.5534 52.9958 26.7583 53.3275C26.9631 53.6593 27.2562 53.9275 27.6048 54.1022L34.8499 57.7248V70.0633C30.9554 67.3558 27.7744 63.7455 25.5789 59.5411C23.3834 55.3367 22.2386 50.6631 22.2424 45.9199C22.2405 41.5594 23.208 37.2531 25.0749 33.3124H32.7487C33.3076 33.3124 33.8413 33.0897 34.2364 32.6989L42.6414 24.2939C42.8364 24.0984 42.9909 23.8664 43.0962 23.6111C43.2015 23.3558 43.2554 23.0823 43.2549 22.8062V17.7212C45.9829 16.9105 48.8141 16.5 51.6599 16.5024C56.2827 16.5024 60.6575 17.5699 64.549 19.4694C63.1406 20.6485 62.0089 22.123 61.234 23.7883C60.4591 25.4536 60.0599 27.269 60.0649 29.1057C60.0649 32.4719 61.3761 35.6406 63.7589 38.0192C65.0031 39.2633 66.4939 40.2332 68.1354 40.8665C69.7769 41.4998 71.5328 41.7825 73.2902 41.6964C74.1979 45.0962 75.8327 53.9551 72.7397 66.1466L72.685 66.4912C69.949 69.2937 66.6793 71.52 63.069 73.0386C59.4587 74.5572 55.5808 75.3374 51.6641 75.3332L51.6599 75.3374Z" fill="white"/>
</g>
<path d="M161.913 29.4854H144.245V38.8782H160.273V51.2527H144.245V73.3182H129.635V17.1109H161.913V29.4854ZM184.649 17.1109V60.9436H202.167V73.3182H170.038V17.1109H184.649ZM235.199 15.2473C243.3 15.297 250.506 18.0303 256.817 23.4473C263.129 28.8145 266.285 35.7473 266.285 44.2454C266.285 53.34 263.352 60.7697 257.488 66.5345C251.674 72.2994 244.244 75.1818 235.199 75.1818C226.204 75.1818 218.774 72.2994 212.91 66.5345C207.046 60.7697 204.114 53.34 204.114 44.2454C204.114 35.7473 207.269 28.8145 213.581 23.4473C219.892 18.0303 227.098 15.3218 235.199 15.3218V15.2473ZM235.199 29.4109C230.826 29.4606 227.074 31.0012 223.943 34.0327C220.861 37.0145 219.321 40.4436 219.321 44.32C219.321 49.1406 220.861 53.1412 223.943 56.3218C227.074 59.5024 230.826 61.0927 235.199 61.0927C239.572 61.0927 243.3 59.5024 246.381 56.3218C249.512 53.1412 251.077 49.1406 251.077 44.32C251.077 40.4436 249.512 37.0145 246.381 34.0327C243.3 31.0012 239.572 29.4854 235.199 29.4854V29.4109ZM273.047 73.3182V17.1109H287.658L314.42 51.4764H314.569V17.1109H329.18V73.3182H314.569L287.807 38.8782H287.658V73.3182H273.047ZM373.151 63.5527H353.024L349.148 73.3182H333.642L355.26 17.1109H371.213L392.384 73.3182H376.804L373.151 63.5527ZM369.2 52.3709L363.237 34.48H363.088L357.049 52.3709H369.2Z" fill="white"/>
<defs>
<clipPath id="clip0_4898_305">
<rect width="67.24" height="67.24" fill="white" transform="translate(18.0399 12.2999)"/>
</clipPath>
</defs>
</svg>
