<svg width="14" height="14" viewBox="0 0 14 14" fill="none" xmlns="http://www.w3.org/2000/svg">
<ellipse cx="7" cy="9.62484" rx="3.5" ry="1.45833" stroke="#6E8E59" stroke-width="0.875" stroke-linejoin="round"/>
<circle cx="7" cy="4.6665" r="1.75" stroke="#6E8E59" stroke-width="0.875" stroke-linejoin="round"/>
<path fill-rule="evenodd" clip-rule="evenodd" d="M3.75986 7.73586C3.03735 7.76593 2.37366 7.89608 1.85846 8.10217C1.56404 8.21993 1.29643 8.3711 1.09526 8.56135C0.893172 8.75246 0.729167 9.01319 0.729167 9.33333C0.729167 9.65348 0.893172 9.9142 1.09526 10.1053C1.29643 10.2956 1.56404 10.4467 1.85846 10.5645C2.15 10.6811 2.48909 10.7734 2.85948 10.837C2.57153 10.5264 2.3908 10.1794 2.34491 9.81138C2.28865 9.79242 2.23477 9.77262 2.18342 9.75208C1.95002 9.65872 1.7905 9.5585 1.69648 9.46958C1.60405 9.38217 1.60416 9.33601 1.60417 9.33338L1.60417 9.33333L1.60417 9.33328C1.60416 9.33065 1.60405 9.28449 1.69648 9.19708C1.7905 9.10817 1.95002 9.00794 2.18342 8.91458C2.30181 8.86723 2.43367 8.82384 2.57709 8.78548C2.81841 8.38306 3.22844 8.02432 3.75986 7.73586Z" fill="#6E8E59"/>
<path fill-rule="evenodd" clip-rule="evenodd" d="M11.6551 9.81138C11.6092 10.1794 11.4285 10.5264 11.1405 10.837C11.5109 10.7734 11.85 10.6811 12.1416 10.5645C12.436 10.4467 12.7036 10.2956 12.9048 10.1053C13.1068 9.9142 13.2709 9.65348 13.2709 9.33333C13.2709 9.01319 13.1068 8.75246 12.9048 8.56135C12.7036 8.3711 12.436 8.21993 12.1416 8.10217C11.6264 7.89608 10.9627 7.76593 10.2402 7.73586C10.7716 8.02432 11.1816 8.38306 11.4229 8.78548C11.5663 8.82384 11.6982 8.86723 11.8166 8.91458C12.05 9.00794 12.2095 9.10817 12.3035 9.19708C12.396 9.28449 12.3959 9.33065 12.3959 9.33328V9.33333V9.33338C12.3959 9.33601 12.396 9.38217 12.3035 9.46958C12.2095 9.5585 12.05 9.65872 11.8166 9.75208C11.7652 9.77262 11.7114 9.79242 11.6551 9.81138Z" fill="#6E8E59"/>
<path fill-rule="evenodd" clip-rule="evenodd" d="M9.6334 5.9221C9.50513 6.19068 9.33698 6.43655 9.13662 6.65208C9.36753 6.78081 9.63353 6.85417 9.91667 6.85417C10.8026 6.85417 11.5208 6.13596 11.5208 5.25C11.5208 4.36404 10.8026 3.64583 9.91667 3.64583C9.85584 3.64583 9.79581 3.64922 9.73674 3.65581C9.8371 3.92742 9.89818 4.21806 9.91308 4.52084C9.91428 4.52084 9.91547 4.52083 9.91667 4.52083C10.3194 4.52083 10.6458 4.84729 10.6458 5.25C10.6458 5.65271 10.3194 5.97917 9.91667 5.97917C9.8162 5.97917 9.72049 5.95885 9.6334 5.9221Z" fill="#6E8E59"/>
<path fill-rule="evenodd" clip-rule="evenodd" d="M4.26326 3.65581C4.20419 3.64922 4.14416 3.64583 4.08333 3.64583C3.19738 3.64583 2.47917 4.36404 2.47917 5.25C2.47917 6.13596 3.19738 6.85417 4.08333 6.85417C4.36647 6.85417 4.63247 6.78081 4.86338 6.65208C4.66302 6.43655 4.49487 6.19068 4.3666 5.9221C4.27951 5.95885 4.1838 5.97917 4.08333 5.97917C3.68063 5.97917 3.35417 5.65271 3.35417 5.25C3.35417 4.84729 3.68063 4.52083 4.08333 4.52083C4.08453 4.52083 4.08572 4.52084 4.08692 4.52084C4.10182 4.21806 4.1629 3.92742 4.26326 3.65581Z" fill="#6E8E59"/>
</svg>
