<svg width="14" height="14" viewBox="0 0 14 14" fill="none" xmlns="http://www.w3.org/2000/svg">
<path d="M7.875 2.0415C7.875 2.52475 7.48325 2.9165 7 2.9165C6.51675 2.9165 6.125 2.52475 6.125 2.0415C6.125 1.55825 6.51675 1.1665 7 1.1665C7.48325 1.1665 7.875 1.55825 7.875 2.0415Z" fill="#6E8E59"/>
<path d="M7.58335 12.2498C7.58335 12.572 7.32219 12.8332 7.00002 12.8332C6.67785 12.8332 6.41669 12.572 6.41669 12.2498C6.41669 11.9277 6.67785 11.6665 7.00002 11.6665C7.32219 11.6665 7.58335 11.9277 7.58335 12.2498Z" fill="#6E8E59"/>
<path d="M5.24998 12.2498C5.24998 12.572 4.98881 12.8332 4.66665 12.8332C4.34448 12.8332 4.08331 12.572 4.08331 12.2498C4.08331 11.9277 4.34448 11.6665 4.66665 11.6665C4.98881 11.6665 5.24998 11.9277 5.24998 12.2498Z" fill="#6E8E59"/>
<path d="M9.91667 12.2498C9.91667 12.572 9.6555 12.8332 9.33333 12.8332C9.01117 12.8332 8.75 12.572 8.75 12.2498C8.75 11.9277 9.01117 11.6665 9.33333 11.6665C9.6555 11.6665 9.91667 11.9277 9.91667 12.2498Z" fill="#6E8E59"/>
<path d="M2.91669 3.5C6.08039 4.28006 7.81653 4.27549 11.0834 3.5" stroke="#6E8E59" stroke-width="0.875" stroke-linecap="round" stroke-linejoin="round"/>
<path d="M5.83331 7.00016V4.0835H8.16665V7.00016H5.83331Z" fill="#6E8E59"/>
<path d="M6.41665 5.8335L5.83331 10.5002" stroke="#6E8E59" stroke-width="0.875" stroke-linecap="round" stroke-linejoin="round"/>
<path d="M7.58331 5.8335L8.16665 10.5002" stroke="#6E8E59" stroke-width="0.875" stroke-linecap="round" stroke-linejoin="round"/>
</svg>
