<svg width="25" height="24" viewBox="0 0 25 24" fill="none" xmlns="http://www.w3.org/2000/svg">
<ellipse cx="12.3" cy="16.4995" rx="6" ry="2.5" stroke="#595959" stroke-width="1.5" stroke-linejoin="round"/>
<circle cx="12.3" cy="7.99951" r="3" stroke="#595959" stroke-width="1.5" stroke-linejoin="round"/>
<path fill-rule="evenodd" clip-rule="evenodd" d="M6.74647 13.2612C5.50762 13.3127 4.3696 13.5359 3.48622 13.8892C2.98151 14.0911 2.52274 14.3502 2.17789 14.6764C1.83145 15.004 1.55029 15.451 1.55029 15.9998C1.55029 16.5486 1.83145 16.9956 2.17789 17.3232C2.52274 17.6493 2.98151 17.9085 3.48622 18.1104C3.98597 18.3103 4.56722 18.4685 5.20212 18.5775C4.70859 18.0451 4.39886 17.4501 4.32025 16.8193C4.22377 16.7868 4.13136 16.7529 4.0433 16.7176C3.64319 16.5576 3.36972 16.3858 3.20855 16.2334C3.0501 16.0835 3.05028 16.0044 3.05029 15.9999L3.05029 15.9998L3.05029 15.9997C3.05028 15.9952 3.0501 15.9161 3.20855 15.7662C3.36972 15.6138 3.64319 15.442 4.0433 15.2819C4.24636 15.2007 4.47252 15.1263 4.71853 15.0605C5.13234 14.3707 5.83536 13.7557 6.74647 13.2612Z" fill="#595959"/>
<path fill-rule="evenodd" clip-rule="evenodd" d="M20.2804 16.8192C20.2019 17.45 19.8922 18.0449 19.3986 18.5774C20.0333 18.4684 20.6144 18.3102 21.114 18.1103C21.6188 17.9085 22.0775 17.6493 22.4224 17.3232C22.7688 16.9955 23.05 16.5486 23.05 15.9998C23.05 15.4509 22.7688 15.004 22.4224 14.6764C22.0775 14.3502 21.6188 14.0911 21.114 13.8892C20.2308 13.5359 19.0929 13.3128 17.8542 13.2612C18.7654 13.7557 19.4684 14.3707 19.8822 15.0606C20.128 15.1264 20.354 15.2007 20.557 15.2819C20.9571 15.442 21.2305 15.6138 21.3917 15.7662C21.5502 15.916 21.55 15.9952 21.55 15.9997V15.9998V15.9998C21.55 16.0044 21.5502 16.0835 21.3917 16.2333C21.2305 16.3858 20.9571 16.5576 20.557 16.7176C20.469 16.7528 20.3768 16.7867 20.2804 16.8192Z" fill="#595959"/>
<path fill-rule="evenodd" clip-rule="evenodd" d="M16.8146 10.1527C16.5947 10.6131 16.3064 11.0346 15.9629 11.4041C16.3587 11.6247 16.8147 11.7505 17.3001 11.7505C18.8189 11.7505 20.0501 10.5193 20.0501 9.00049C20.0501 7.48171 18.8189 6.25049 17.3001 6.25049C17.1959 6.25049 17.0932 6.25628 16.992 6.26755C17.164 6.73318 17.2687 7.23144 17.2942 7.7505C17.2962 7.75049 17.2981 7.75049 17.3001 7.75049C17.9904 7.75049 18.5501 8.31013 18.5501 9.00049C18.5501 9.69084 17.9904 10.2505 17.3001 10.2505C17.1279 10.2505 16.9639 10.2157 16.8146 10.1527Z" fill="#595959"/>
<path fill-rule="evenodd" clip-rule="evenodd" d="M7.60878 6.2676C7.50751 6.25629 7.40458 6.25049 7.30029 6.25049C5.78151 6.25049 4.55029 7.48171 4.55029 9.00049C4.55029 10.5193 5.78151 11.7505 7.30029 11.7505C7.78578 11.7505 8.24187 11.6247 8.63777 11.4039C8.29429 11.0345 8.00603 10.613 7.78612 10.1526C7.63677 10.2156 7.4726 10.2505 7.30029 10.2505C6.60994 10.2505 6.05029 9.69084 6.05029 9.00049C6.05029 8.31013 6.60994 7.75049 7.30029 7.75049C7.30238 7.75049 7.30447 7.75049 7.30656 7.7505C7.33209 7.23145 7.43677 6.73321 7.60878 6.2676Z" fill="#595959"/>
</svg>
