<svg width="22" height="23" viewBox="0 0 22 23" fill="none" xmlns="http://www.w3.org/2000/svg">
<path d="M7.46967 6.96967C7.17678 7.26256 7.17678 7.73744 7.46967 8.03033C7.76256 8.32322 8.23744 8.32322 8.53033 8.03033L7.46967 6.96967ZM12.4142 5.91421L11.8839 6.44454H11.8839L12.4142 5.91421ZM13.4697 8.03033C13.7626 8.32322 14.2374 8.32322 14.5303 8.03033C14.8232 7.73744 14.8232 7.26256 14.5303 6.96967L13.4697 8.03033ZM11.75 5.5C11.75 5.08579 11.4142 4.75 11 4.75C10.5858 4.75 10.25 5.08579 10.25 5.5H11.75ZM10.25 10.5C10.25 10.9142 10.5858 11.25 11 11.25C11.4142 11.25 11.75 10.9142 11.75 10.5H10.25ZM6.6 13.3L6 13.75H6L6.6 13.3ZM7.8 14.9L8.4 14.45L7.8 14.9ZM14.2 14.9L13.6 14.45L14.2 14.9ZM15.4 13.3L14.8 12.85L14.8 12.85L15.4 13.3ZM8.53033 8.03033L10.1161 6.44454L9.05546 5.38388L7.46967 6.96967L8.53033 8.03033ZM11.8839 6.44454L13.4697 8.03033L14.5303 6.96967L12.9445 5.38388L11.8839 6.44454ZM10.25 5.5V10.5H11.75V5.5H10.25ZM10.1161 6.44454C10.6043 5.95639 11.3957 5.95639 11.8839 6.44454L12.9445 5.38388C11.8706 4.30994 10.1294 4.30994 9.05546 5.38388L10.1161 6.44454ZM20.25 15.5V18.5H21.75V15.5H20.25ZM18 20.75H4V22.25H18V20.75ZM1.75 18.5V15.5H0.25V18.5H1.75ZM4 13.25H5V11.75H4V13.25ZM6 13.75L7.2 15.35L8.4 14.45L7.2 12.85L6 13.75ZM17 13.25H18V11.75H17V13.25ZM14.8 15.35L16 13.75L14.8 12.85L13.6 14.45L14.8 15.35ZM11 17.25C12.4951 17.25 13.9029 16.5461 14.8 15.35L13.6 14.45C12.9862 15.2684 12.023 15.75 11 15.75V17.25ZM17 11.75C16.1344 11.75 15.3194 12.1575 14.8 12.85L16 13.75C16.2361 13.4352 16.6066 13.25 17 13.25V11.75ZM7.2 15.35C8.09706 16.5461 9.5049 17.25 11 17.25V15.75C9.97704 15.75 9.01378 15.2684 8.4 14.45L7.2 15.35ZM5 13.25C5.39345 13.25 5.76393 13.4352 6 13.75L7.2 12.85C6.68065 12.1575 5.86558 11.75 5 11.75V13.25ZM4 20.75C2.75736 20.75 1.75 19.7426 1.75 18.5H0.25C0.25 20.5711 1.92893 22.25 4 22.25V20.75ZM20.25 18.5C20.25 19.7426 19.2426 20.75 18 20.75V22.25C20.0711 22.25 21.75 20.5711 21.75 18.5H20.25ZM21.75 15.5C21.75 13.4289 20.0711 11.75 18 11.75V13.25C19.2426 13.25 20.25 14.2574 20.25 15.5H21.75ZM1.75 15.5C1.75 14.2574 2.75736 13.25 4 13.25V11.75C1.92893 11.75 0.25 13.4289 0.25 15.5H1.75ZM19.75 12.5V5.5H18.25V12.5H19.75ZM15 0.75H7V2.25H15V0.75ZM2.25 5.5V12.5H3.75V5.5H2.25ZM7 0.75C4.37665 0.75 2.25 2.87665 2.25 5.5H3.75C3.75 3.70507 5.20507 2.25 7 2.25V0.75ZM19.75 5.5C19.75 2.87665 17.6234 0.75 15 0.75V2.25C16.7949 2.25 18.25 3.70507 18.25 5.5H19.75Z" fill="#BFBFBF"/>
</svg>
